<?xml version="1.0" encoding="UTF-8" standalone="no"?><!DOCTYPE svg PUBLIC "-//W3C//DTD SVG 1.1//EN" "http://www.w3.org/Graphics/SVG/1.1/DTD/svg11.dtd"><svg width="100%" height="100%" viewBox="0 0 120 120" version="1.1" xmlns="http://www.w3.org/2000/svg" xmlns:xlink="http://www.w3.org/1999/xlink" xml:space="preserve" xmlns:serif="http://www.serif.com/" style="fill-rule:evenodd;clip-rule:evenodd;stroke-miterlimit:2;"><path d="M34.996,48.584c8.523,0 13.004,-4.675 13.004,-11.055c0,-5.357 -3.166,-8.572 -8.62,-9.546l-3.556,-0.633c-3.311,-0.584 -4.675,-1.607 -4.675,-3.945c-0,-2.679 1.656,-4.042 4.919,-4.042c3.068,-0 5.601,1.217 7.403,3.214l4.139,-4.627c-2.386,-2.776 -6.38,-4.529 -11.591,-4.529c-7.695,0 -12.224,3.799 -12.224,10.325c-0,4.968 2.581,8.718 8.669,9.741l3.555,0.584c3.312,0.536 4.578,1.656 4.578,4.042c0,2.922 -1.899,4.53 -5.357,4.53c-3.02,-0 -6.088,-1.267 -8.572,-3.994l-4.237,4.676c2.581,3.214 6.916,5.259 12.565,5.259Z" style="fill:#0057b7;fill-rule:nonzero;stroke:#000;stroke-width:1px;"/><path d="M46.49,108.197l0,-5.406l-7.305,0l-0,-23.182l7.305,-0l0,-5.406l-21.916,-0l-0,5.406l7.305,-0l0,23.182l-7.305,0l-0,5.406l21.916,0Z" style="fill:#0057b7;fill-rule:nonzero;stroke:#000;stroke-width:1px;"/><path d="M92.229,48l8.231,-0l-10.666,-19.627l10.179,-14.368l-8.182,0l-5.991,8.572l-3.701,5.65l-0.39,-0l0,-14.222l-7.305,0l0,33.995l7.305,-0l0,-9.935l3.02,-4.238l7.5,14.173Z" style="fill:#0057b7;fill-rule:nonzero;stroke:#000;stroke-width:1px;"/><path d="M82.148,108.197l-0,-12.37l5.795,-0c6.673,-0 10.423,-4.237 10.423,-10.812c-0,-6.575 -3.75,-10.812 -10.423,-10.812l-13.149,-0l-0,33.994l7.354,0Zm-0,-28.101l3.945,-0c3.409,-0 4.578,1.217 4.578,4.188l-0,1.461c-0,2.971 -1.169,4.189 -4.578,4.189l-3.945,-0l-0,-9.838Z" style="fill:#0057b7;fill-rule:nonzero;stroke:#000;stroke-width:1px;"/><path d="M60,5.403l6,48.597l-6,6" style="stroke:#000;stroke-width:0.95px;stroke-linecap:round;stroke-linejoin:round;stroke-miterlimit:1.5;"/><path d="M5.403,60l48.597,-6l6,6" style="stroke:#000;stroke-width:0.95px;stroke-linecap:round;stroke-linejoin:round;stroke-miterlimit:1.5;"/><path d="M60.133,114.597l-6,-48.597l6,-6" style="stroke:#000;stroke-width:0.95px;stroke-linecap:round;stroke-linejoin:round;stroke-miterlimit:1.5;"/><path d="M114.731,60l-48.598,6l-6,-6" style="stroke:#000;stroke-width:0.95px;stroke-linecap:round;stroke-linejoin:round;stroke-miterlimit:1.5;"/><path d="M60.133,5.403l-6,48.597l6,6" style="fill:#ffd700;stroke:#000;stroke-width:0.95px;stroke-linecap:round;stroke-linejoin:round;stroke-miterlimit:1.5;"/><path d="M114.731,60l-48.598,-6l-6,6" style="fill:#ffd700;stroke:#000;stroke-width:0.95px;stroke-linecap:round;stroke-linejoin:round;stroke-miterlimit:1.5;"/><path d="M60,114.597l6,-48.597l-6,-6" style="fill:#ffd700;stroke:#000;stroke-width:0.95px;stroke-linecap:round;stroke-linejoin:round;stroke-miterlimit:1.5;"/><path d="M5.403,60l48.597,6l6,-6" style="fill:#ffd700;stroke:#000;stroke-width:0.95px;stroke-linecap:round;stroke-linejoin:round;stroke-miterlimit:1.5;"/></svg>